<mxfile host="app.diagrams.net" modified="2024-04-14T17:45:04.023Z" agent="Mozilla/5.0 (Windows NT 10.0; Win64; x64) AppleWebKit/537.36 (KHTML, like Gecko) Chrome/123.0.0.0 Safari/537.36 OPR/109.0.0.0" version="24.2.5" etag="GyxoBK1JvHEUy0vRBX83" type="github">
  <diagram name="Strona-1" id="7YO8nz4pqUknpsq_Tmat">
    <mxGraphModel>
      <root>
        <mxCell id="0" />
        <mxCell id="1" parent="0" />
      </root>
    </mxGraphModel>
  </diagram>
</mxfile>
